# xmcd CD database file
#
# Track frame offsets:
#	150
#	29570
#	67254
#	86118
#	112009
#	139924
#	162119
#
# Disc length: 2721 seconds
#
# Revision: 1
# Processed by: cddbd v1.4PL0 Copyright (c) Steve Scherf et al.
# Submitted via: CDex 1.51
#
DISCID=660a9f07
DTITLE=4FreeHands - EasternMoods
DYEAR=1999
DGENRE=Jazz
TTITLE0=Lyasata
TTITLE1=Habarn-am
TTITLE2=Gipsy Miles
TTITLE3=Bulgarian Suite
TTITLE4=Spanish Fly
TTITLE5=East Side Story
TTITLE6=Turkish Song
EXTD=YEAR: 1999
EXTT0=
EXTT1=
EXTT2=
EXTT3=
EXTT4=
EXTT5=
EXTT6=
PLAYORDER=
